<svg width="40" height="41" viewBox="0 0 40 41" fill="none" xmlns="http://www.w3.org/2000/svg">
<path d="M20.0001 9.5605C15.5115 6.8155 8.67008 5.71 1.66675 5.5V32.071C7.68161 32.251 13.5758 33.0925 17.9636 35.0635C19.2561 35.6455 20.7395 35.6455 22.0381 35.0635C26.4259 33.0925 32.3186 32.251 38.3334 32.071V5.5C31.3301 5.71 24.4887 6.8155 20.0001 9.5605ZM4.7223 29.2165V8.6605C12.6011 9.244 16.2219 10.855 18.4723 12.1615V31.9135C16.1424 31.0945 11.2673 29.656 4.7223 29.2165ZM35.2779 29.2165C28.7344 29.656 23.8577 31.0945 21.5279 31.915V12.1585C23.7477 10.867 27.3792 9.2455 35.2779 8.6605V29.2165Z" fill="#3697E9"/>
</svg>
