<svg width="40" height="41" viewBox="0 0 40 41" fill="none" xmlns="http://www.w3.org/2000/svg">
<path fill-rule="evenodd" clip-rule="evenodd" d="M8.33339 23.8291V10.2317C10.1492 10.044 12.161 9.77509 13.9793 9.41599C15.4388 9.12774 16.9577 8.7468 18.1814 8.22556C18.7353 7.9896 19.4009 7.65419 19.9975 7.16666H20.0027C20.5993 7.65419 21.2648 7.9896 21.8188 8.22556C23.0424 8.7468 24.5613 9.12774 26.0209 9.41599C27.8391 9.77509 29.8509 10.044 31.6667 10.2317V23.8333C31.6667 24.6662 29.8914 30.5456 20.0016 33.6852C15.2838 32.1778 12.3616 29.956 10.6274 27.9854C9.69629 26.9273 9.10001 25.9334 8.74626 25.1422C8.56926 24.7462 8.46005 24.4169 8.39782 24.1706C8.34547 23.9635 8.33564 23.8522 8.33381 23.8315C8.3336 23.8291 8.33349 23.8279 8.33344 23.8279L8.33339 23.8291ZM5.00006 23.8333V7.16666C9.44451 6.88888 18.3334 5.83333 18.3334 3.83333H21.6667C21.6667 5.83333 30.5556 6.88888 35.0001 7.16666V23.8333C35.0001 26.6111 31.6667 33.8333 20.0001 37.1667C8.33339 33.8333 5.00006 26.3333 5.00006 23.8333ZM23.3334 17.1667C23.3334 18.4005 22.6631 19.4777 21.6667 20.0541V25.5H18.3334V20.0541C17.3371 19.4777 16.6667 18.4005 16.6667 17.1667C16.6667 15.3257 18.1591 13.8333 20.0001 13.8333C21.841 13.8333 23.3334 15.3257 23.3334 17.1667Z" fill="#3697E9"/>
</svg>
