<svg width="41" height="41" viewBox="0 0 41 41" fill="none" xmlns="http://www.w3.org/2000/svg">
<path fill-rule="evenodd" clip-rule="evenodd" d="M34 20.5C34 27.8638 28.0305 33.8333 20.6667 33.8333C13.3029 33.8333 7.33336 27.8638 7.33336 20.5C7.33336 13.1362 13.3029 7.16668 20.6667 7.16668C28.0305 7.16668 34 13.1362 34 20.5ZM37.3334 20.5C37.3334 29.7048 29.8714 37.1667 20.6667 37.1667C11.462 37.1667 4.00003 29.7048 4.00003 20.5C4.00003 11.2953 11.462 3.83334 20.6667 3.83334C29.8714 3.83334 37.3334 11.2953 37.3334 20.5ZM18.987 22.1667C18.7006 22.8524 18.5573 23.7726 18.5573 24.9271H21.5131C21.5304 23.6771 21.8256 22.7266 22.3985 22.0755L24 20.5C25.3195 19.1285 25.9792 17.7353 25.9792 16.3203C25.9792 14.7318 25.4887 13.4948 24.5078 12.6094C23.5356 11.724 22.1771 11.2813 20.4323 11.2813C18.7396 11.2813 17.3768 11.7283 16.3438 12.6224C15.3195 13.5165 14.7986 14.7318 14.7813 16.2682H17.9453C17.9453 15.5478 18.171 14.9792 18.6224 14.5625C19.0825 14.1372 19.6858 13.9245 20.4323 13.9245C21.2136 13.9245 21.8039 14.1415 22.2032 14.5755C22.6111 15.0009 22.8151 15.6215 22.8151 16.4375C22.8151 17.0538 22.6415 17.6267 22.2943 18.1563C22.0686 18.5035 21.5304 19.0894 20.6797 19.9141C19.8377 20.73 19.2735 21.4809 18.987 22.1667ZM18.8177 27.7396C18.4966 28.0521 18.336 28.4644 18.336 28.9766C18.336 29.454 18.4879 29.8533 18.7917 30.1745C19.1042 30.4957 19.5469 30.6563 20.1198 30.6563C20.6927 30.6563 21.1354 30.4957 21.4479 30.1745C21.7604 29.8533 21.9167 29.454 21.9167 28.9766C21.9167 28.4818 21.7561 28.0738 21.4349 27.7526C21.1137 27.4228 20.6754 27.2578 20.1198 27.2578C19.5729 27.2578 19.1389 27.4184 18.8177 27.7396Z" fill="#3697E9"/>
</svg>
