<svg width="41" height="41" viewBox="0 0 41 41" fill="none" xmlns="http://www.w3.org/2000/svg">
<path d="M38.4726 17.1542C38.6056 16.7707 38.6667 16.3765 38.6667 15.9869C38.6667 14.8106 38.0861 13.6739 37.0549 12.9604C33.7656 10.681 34.201 11.2539 32.9619 7.5475C32.4425 5.99987 30.9468 4.95487 29.2586 4.95487H29.2479C25.1947 4.96862 25.8975 5.18556 22.6265 2.88626C21.9451 2.40653 21.1385 2.16667 20.3333 2.16667C19.5282 2.16667 18.7215 2.40653 18.0386 2.88626C14.7447 5.20084 15.4628 4.96709 11.4172 4.95334H11.4065C9.71986 4.95334 8.22264 5.99987 7.70625 7.54598C6.46569 11.2615 6.89042 10.6871 3.61486 12.9604C2.58056 13.6769 2 14.8121 2 15.99C2 16.3781 2.06417 16.7707 2.19403 17.1542C3.46361 20.8636 3.46056 20.1517 2.19403 23.8458C2.06417 24.2293 2 24.6204 2 25.01C2 26.1864 2.58056 27.3231 3.61486 28.0396C6.89347 30.316 6.46875 29.74 7.70778 33.4525C8.22417 35.0001 9.71986 36.0451 11.4081 36.0451H11.4187C15.4719 36.0314 14.7692 35.8129 18.0401 38.1122C18.7215 38.5919 19.5282 38.8333 20.3333 38.8333C21.1385 38.8333 21.9451 38.5919 22.6281 38.1138C25.899 35.816 25.1932 36.0329 29.2494 36.0467H29.2601C30.9468 36.0467 32.444 35.0001 32.9635 33.454C34.2025 29.7461 33.7656 30.319 37.0564 28.0411C38.0861 27.3246 38.6667 26.1879 38.6667 25.0115C38.6667 24.6235 38.6056 24.2293 38.4726 23.8458C37.2031 20.1364 37.2092 20.8468 38.4726 17.1542V17.1542ZM20.3333 33.4861C13.1619 33.4861 7.34722 27.6714 7.34722 20.5C7.34722 13.3286 13.1619 7.51389 20.3333 7.51389C27.5047 7.51389 33.3194 13.3286 33.3194 20.5C33.3194 27.6714 27.5047 33.4861 20.3333 33.4861V33.4861ZM18.4236 26.5469L12.6944 20.9904L15.061 18.6254L18.4236 21.8154L25.6057 14.4531L27.9722 16.8181L18.4236 26.5469V26.5469Z" fill="#3697E9"/>
</svg>
