<svg width="41" height="41" viewBox="0 0 41 41" fill="none" xmlns="http://www.w3.org/2000/svg">
<path fill-rule="evenodd" clip-rule="evenodd" d="M28.5 10.5H35.3334V37.1667H5.33337V10.5H12.1667C12.9389 6.69628 16.3018 3.83334 20.3334 3.83334C24.365 3.83334 27.7279 6.69628 28.5 10.5ZM15.6179 10.5H25.0489C24.3625 8.55802 22.5104 7.16668 20.3334 7.16668C18.1563 7.16668 16.3043 8.55802 15.6179 10.5ZM12 13.8333L8.66671 13.8333V33.8333H32V13.8333L28.6667 13.8333H12ZM28.1781 19.9397L25.8937 17.6541L18.2738 25.2778L14.9355 21.9379L12.4883 24.3863L18.111 30.0117L28.1781 19.9397Z" fill="#3697E9"/>
</svg>
